<mxfile host="app.diagrams.net" modified="2024-05-23T02:52:20.702Z" agent="Mozilla/5.0 (Windows NT 10.0; Win64; x64) AppleWebKit/537.36 (KHTML, like Gecko) Chrome/125.0.0.0 Safari/537.36" version="24.4.6" etag="pMixoBbAlqhyI14I3Ml-" type="github">
  <diagram name="第 1 页" id="8t1bGG0E5tvwLliWmEIp">
    <mxGraphModel>
      <root>
        <mxCell id="0" />
        <mxCell id="1" parent="0" />
      </root>
    </mxGraphModel>
  </diagram>
</mxfile>
